<svg width="38" height="38" viewBox="0 0 38 38" fill="none" xmlns="http://www.w3.org/2000/svg">
<path d="M31.8136 15.3254L20.3072 4.86898C19.8829 4.48087 19.3288 4.26563 18.7538 4.26563C18.1788 4.26562 17.6247 4.48087 17.2004 4.86898L5.69402 15.3254C5.45844 15.541 5.27028 15.8032 5.14152 16.0953C5.01276 16.3875 4.94621 16.7033 4.94611 17.0226V30.2694C4.93675 30.8496 5.14158 31.4129 5.52143 31.8515C5.73701 32.0967 6.00258 32.2928 6.30029 32.4268C6.598 32.5608 6.92093 32.6294 7.24739 32.6282H14.1512C14.4564 32.6282 14.7491 32.507 14.9649 32.2912C15.1806 32.0754 15.3019 31.7827 15.3019 31.4776V24.5737C15.3019 24.2685 15.4231 23.9759 15.6389 23.7601C15.8547 23.5443 16.1474 23.4231 16.4525 23.4231H21.0551C21.3603 23.4231 21.6529 23.5443 21.8687 23.7601C22.0845 23.9759 22.2057 24.2685 22.2057 24.5737V31.4776C22.2057 31.7827 22.327 32.0754 22.5427 32.2912C22.7585 32.507 23.0512 32.6282 23.3564 32.6282H30.2602C30.6419 32.6316 31.0181 32.5375 31.3533 32.3549C31.7181 32.1563 32.0227 31.8632 32.2352 31.5064C32.4478 31.1496 32.5605 30.7422 32.5615 30.3269V17.0226C32.5614 16.7033 32.4948 16.3875 32.3661 16.0953C32.2373 15.8032 32.0492 15.541 31.8136 15.3254Z" fill="white"/>
</svg>
