<svg width="38" height="38" viewBox="0 0 38 38" fill="none" xmlns="http://www.w3.org/2000/svg">
<path d="M19.2462 32.6282C26.8719 32.6282 33.0539 26.4463 33.0539 18.8205C33.0539 11.1947 26.8719 5.01282 19.2462 5.01282C11.6204 5.01282 5.43848 11.1947 5.43848 18.8205C5.43848 26.4463 11.6204 32.6282 19.2462 32.6282Z" fill="white" stroke="white" stroke-width="2" stroke-linecap="round" stroke-linejoin="round"/>
<path d="M19.2462 23.4231C22.4237 23.4231 24.9995 20.8473 24.9995 17.6699C24.9995 14.4925 22.4237 11.9167 19.2462 11.9167C16.0688 11.9167 13.493 14.4925 13.493 17.6699C13.493 20.8473 16.0688 23.4231 19.2462 23.4231Z" stroke="#224E77" stroke-width="2" stroke-linecap="round" stroke-linejoin="round"/>
<path d="M10.0123 29.09C10.8781 27.3847 12.1991 25.9526 13.8289 24.9521C15.4588 23.9517 17.3338 23.4222 19.2462 23.4222C21.1586 23.4222 23.0337 23.9517 24.6635 24.9521C26.2934 25.9526 27.6144 27.3847 28.4801 29.09" stroke="#224E77" stroke-width="2" stroke-linecap="round" stroke-linejoin="round"/>
</svg>
