<svg width="37" height="37" viewBox="0 0 37 37" fill="none" xmlns="http://www.w3.org/2000/svg">
<path d="M28.7656 4.60249H26.4644V3.45186C26.4644 3.1467 26.3431 2.85403 26.1274 2.63825C25.9116 2.42247 25.6189 2.30124 25.3137 2.30124C25.0086 2.30124 24.7159 2.42247 24.5001 2.63825C24.2843 2.85403 24.1631 3.1467 24.1631 3.45186V4.60249H19.5606V3.45186C19.5606 3.1467 19.4394 2.85403 19.2236 2.63825C19.0078 2.42247 18.7152 2.30124 18.41 2.30124C18.1048 2.30124 17.8122 2.42247 17.5964 2.63825C17.3806 2.85403 17.2594 3.1467 17.2594 3.45186V4.60249H12.6569V3.45186C12.6569 3.1467 12.5356 2.85403 12.3199 2.63825C12.1041 2.42247 11.8114 2.30124 11.5062 2.30124C11.2011 2.30124 10.9084 2.42247 10.6926 2.63825C10.4769 2.85403 10.3556 3.1467 10.3556 3.45186V4.60249H8.05437C7.44404 4.60249 6.85871 4.84494 6.42714 5.27651C5.99558 5.70808 5.75312 6.29341 5.75312 6.90374V28.7656C5.75312 29.9863 6.23803 31.1569 7.10117 32.0201C7.9643 32.8832 9.13497 33.3681 10.3556 33.3681H26.4644C27.685 33.3681 28.8557 32.8832 29.7188 32.0201C30.582 31.1569 31.0669 29.9863 31.0669 28.7656V6.90374C31.0669 6.29341 30.8244 5.70808 30.3929 5.27651C29.9613 4.84494 29.376 4.60249 28.7656 4.60249ZM23.0125 24.1631H13.8075C13.5023 24.1631 13.2097 24.0419 12.9939 23.8261C12.7781 23.6103 12.6569 23.3177 12.6569 23.0125C12.6569 22.7073 12.7781 22.4147 12.9939 22.1989C13.2097 21.9831 13.5023 21.8619 13.8075 21.8619H23.0125C23.3177 21.8619 23.6103 21.9831 23.8261 22.1989C24.0419 22.4147 24.1631 22.7073 24.1631 23.0125C24.1631 23.3177 24.0419 23.6103 23.8261 23.8261C23.6103 24.0419 23.3177 24.1631 23.0125 24.1631ZM23.0125 19.5606H13.8075C13.5023 19.5606 13.2097 19.4394 12.9939 19.2236C12.7781 19.0078 12.6569 18.7152 12.6569 18.41C12.6569 18.1048 12.7781 17.8122 12.9939 17.5964C13.2097 17.3806 13.5023 17.2594 13.8075 17.2594H23.0125C23.3177 17.2594 23.6103 17.3806 23.8261 17.5964C24.0419 17.8122 24.1631 18.1048 24.1631 18.41C24.1631 18.7152 24.0419 19.0078 23.8261 19.2236C23.6103 19.4394 23.3177 19.5606 23.0125 19.5606Z" fill="white"/>
</svg>
